<svg width="130" height="104" viewBox="0 0 130 104" fill="none" xmlns="http://www.w3.org/2000/svg">
<path d="M16.1813 33.4737C13.84 33.4737 11.7268 33.0088 9.84174 32.0789C7.95657 31.1491 6.32991 29.8939 4.96163 28.3132C3.59339 26.7015 2.5292 24.9038 1.76907 22.9202C1.03934 20.9055 0.674471 18.8445 0.674471 16.7368C0.674471 14.5362 1.06974 12.4441 1.86028 10.4605C2.65082 8.44588 3.74541 6.66375 5.1441 5.11404C6.54272 3.53333 8.18461 2.29357 10.0698 1.39474C11.9853 0.464912 14.0528 0 16.2725 0C18.5833 0 20.6812 0.480412 22.5664 1.44123C24.4819 2.40204 26.1086 3.6883 27.4465 5.3C28.8147 6.91169 29.8637 8.70939 30.5934 10.693C31.3535 12.6766 31.7336 14.7068 31.7336 16.7833C31.7336 18.9839 31.3383 21.0915 30.5478 23.1061C29.7876 25.0897 28.7083 26.8719 27.3096 28.4526C25.9109 30.0024 24.2539 31.2266 22.3384 32.1254C20.4532 33.0243 18.4008 33.4737 16.1813 33.4737ZM5.87383 16.7368C5.87383 18.2866 6.11701 19.7897 6.60356 21.2465C7.09002 22.7032 7.77414 24.005 8.65593 25.1518C9.56809 26.2675 10.6627 27.1509 11.9397 27.8018C13.2167 28.4526 14.6457 28.7781 16.2269 28.7781C17.8688 28.7781 19.3282 28.4371 20.6052 27.7553C21.8823 27.0734 22.9464 26.159 23.7978 25.0123C24.6795 23.8345 25.3485 22.5327 25.8046 21.107C26.2607 19.6503 26.4887 18.1936 26.4887 16.7368C26.4887 15.1871 26.2454 13.6994 25.759 12.2737C25.3029 10.8169 24.6188 9.5307 23.7066 8.41491C22.7944 7.26812 21.6998 6.3693 20.4228 5.71842C19.1762 5.06754 17.7775 4.74211 16.2269 4.74211C14.585 4.74211 13.1255 5.08304 11.8485 5.76491C10.5715 6.44678 9.49201 7.36111 8.61032 8.50789C7.72853 9.65465 7.04441 10.941 6.55795 12.3667C6.10187 13.7924 5.87383 15.2491 5.87383 16.7368ZM78.2061 0.232456V33.2412H73.0524V18.6895H56.7247V33.2412H51.6166V0.232456H56.7247V14.0404H73.0524V0.232456H78.2061ZM113.56 33.4737C111.219 33.4737 109.106 33.0088 107.22 32.0789C105.336 31.1491 103.708 29.8939 102.34 28.3132C100.972 26.7015 99.9082 24.9038 99.1474 22.9202C98.4177 20.9055 98.0528 18.8445 98.0528 16.7368C98.0528 14.5362 98.4487 12.4441 99.2386 10.4605C100.029 8.44588 101.124 6.66375 102.522 5.11404C103.922 3.53333 105.564 2.29357 107.448 1.39474C109.364 0.464912 111.432 0 113.651 0C115.962 0 118.06 0.480412 119.945 1.44123C121.86 2.40204 123.488 3.6883 124.825 5.3C126.193 6.91169 127.242 8.70939 127.972 10.693C128.733 12.6766 129.112 14.7068 129.112 16.7833C129.112 18.9839 128.717 21.0915 127.926 23.1061C127.166 25.0897 126.087 26.8719 124.688 28.4526C123.29 30.0024 121.632 31.2266 119.717 32.1254C117.832 33.0243 115.78 33.4737 113.56 33.4737ZM103.252 16.7368C103.252 18.2866 103.496 19.7897 103.982 21.2465C104.469 22.7032 105.153 24.005 106.034 25.1518C106.946 26.2675 108.041 27.1509 109.318 27.8018C110.595 28.4526 112.024 28.7781 113.605 28.7781C115.247 28.7781 116.707 28.4371 117.984 27.7553C119.261 27.0734 120.325 26.159 121.176 25.0123C122.058 23.8345 122.727 22.5327 123.183 21.107C123.639 19.6503 123.867 18.1936 123.867 16.7368C123.867 15.1871 123.624 13.6994 123.137 12.2737C122.681 10.8169 121.997 9.5307 121.085 8.41491C120.173 7.26812 119.078 6.3693 117.801 5.71842C116.555 5.06754 115.156 4.74211 113.605 4.74211C111.963 4.74211 110.504 5.08304 109.227 5.76491C107.95 6.44678 106.871 7.36111 105.989 8.50789C105.107 9.65465 104.423 10.941 103.936 12.3667C103.48 13.7924 103.252 15.2491 103.252 16.7368ZM26.7263 37.3789H15.9628V65.7851H10.8091V37.3789H0V32.7763H26.7263V37.3789ZM58.2968 61.1825V65.7851H36.0856V32.7763H57.8863V37.3789H41.1938V46.7702H55.6515V51.0939H41.1938V61.1825H58.2968ZM68.6288 65.7851V32.7763H91.3877V37.3325H73.7369V46.5842H83.2234C86.8113 46.5842 89.5022 47.452 91.2965 49.1877C93.0898 50.8924 93.9873 53.155 93.9873 55.9754C93.9873 57.8661 93.5915 59.5553 92.8015 61.043C92.0408 62.4997 90.886 63.662 89.3353 64.5298C87.8147 65.3667 85.8839 65.7851 83.5426 65.7851H68.6288ZM73.7369 61.2289H82.8585C84.2572 61.2289 85.3822 60.9655 86.2335 60.4386C87.1153 59.9117 87.739 59.2453 88.1039 58.4395C88.4988 57.6026 88.6968 56.7348 88.6968 55.836C88.6968 54.9371 88.529 54.1003 88.1951 53.3254C87.8603 52.5506 87.2519 51.9307 86.3703 51.4658C85.519 50.9699 84.318 50.7219 82.7673 50.7219H73.7369V61.2289ZM126.009 61.1825V65.7851H103.798V32.7763H125.598V37.3789H108.906V46.7702H123.364V51.0939H108.906V61.1825H126.009ZM26.6127 65.3202V98.3289H21.4589V83.7772H5.13124V98.3289H0.0231599V65.3202H5.13124V79.1281H21.4589V65.3202H26.6127ZM44.1793 65.3202H49.0137L61.6016 98.3289H56.2198L52.7992 89.3561H40.3026L36.9276 98.3289H31.5002L44.1793 65.3202ZM51.7958 85.4974L46.5965 71.0386L41.2147 85.4974H51.7958ZM61.4103 104.652V93.7263H62.961C63.8123 93.7263 64.542 93.3851 65.1501 92.7035C65.7887 92.0219 66.3207 90.9368 66.7464 89.4491C67.2025 87.9614 67.5521 86.0088 67.7954 83.5912C68.0691 81.1427 68.2666 78.1517 68.3883 74.6184L68.6164 65.3202H89.4594V93.7263H93.5641V104.652H89.0489V98.3289H65.9255V104.652H61.4103ZM69.4373 93.7263H84.3055V69.9228H73.3596L73.2228 75.3158C73.1316 78.8801 72.9491 81.902 72.6755 84.3816C72.4018 86.8301 72.0065 88.8138 71.4897 90.3325C70.9728 91.8509 70.2886 92.9825 69.4373 93.7263ZM113.379 98.5614C111.037 98.5614 108.925 98.0965 107.039 97.1667C105.154 96.2368 103.528 94.9816 102.159 93.4009C100.791 91.7892 99.7267 89.9915 98.9668 88.0079C98.2371 85.9932 97.8722 83.9322 97.8722 81.8246C97.8722 79.6239 98.2672 77.5318 99.058 75.5482C99.8489 73.5336 100.943 71.7515 102.342 70.2018C103.74 68.621 105.382 67.3813 107.268 66.4825C109.183 65.5526 111.251 65.0877 113.47 65.0877C115.781 65.0877 117.879 65.5682 119.764 66.5289C121.68 67.4897 123.306 68.776 124.644 70.3877C126.012 71.9994 127.061 73.7971 127.791 75.7807C128.551 77.7643 128.931 79.7945 128.931 81.8711C128.931 84.0717 128.536 86.1792 127.746 88.1939C126.986 90.1775 125.906 91.9596 124.507 93.5403C123.109 95.0904 121.452 96.314 119.536 97.2132C117.651 98.1123 115.598 98.5614 113.379 98.5614ZM103.072 81.8246C103.072 83.3743 103.315 84.8774 103.801 86.3342C104.287 87.791 104.972 89.0927 105.854 90.2395C106.766 91.3553 107.86 92.2386 109.137 92.8895C110.414 93.5404 111.844 93.8658 113.425 93.8658C115.066 93.8658 116.526 93.5245 117.803 92.843C119.08 92.1614 120.144 91.2467 120.996 90.1C121.878 88.9222 122.546 87.6204 123.002 86.1947C123.458 84.738 123.686 83.2813 123.686 81.8246C123.686 80.2748 123.443 78.7871 122.957 77.3614C122.501 75.9046 121.816 74.6184 120.904 73.5026C119.992 72.3559 118.898 71.457 117.621 70.8061C116.374 70.1553 114.975 69.8298 113.425 69.8298C111.783 69.8298 110.323 70.1708 109.046 70.8526C107.769 71.5345 106.69 72.4489 105.808 73.5956C104.926 74.7424 104.242 76.0287 103.756 77.4544C103.3 78.8801 103.072 80.3368 103.072 81.8246Z" fill="black"/>
</svg>
